# xmcd CD database file
#
# Track frame offsets:
#	150
#	3130
#	16359
#	20496
#	33578
#	36383
#	45736
#	48233
#	56698
#	60463
#	72896
#	75573
#	86237
#	89227
#	100095
#	102412
#	110677
#	116280
#	134562
#	136923
#	142669
#	144415
#	149431
#	152575
#	163410
#	167128
#	180663
#	183234
#	185812
#	188378
#	190952
#	201721
#	206146
#	207954
#	209803
#	211664
#	231496
#	243629
#	247022
#	248892
#	250711
#	252565
#	265940
#	273871
#	278284
#	280231
#	282151
#	284170
#	303084
#
# Disc length: 4175 seconds
#
# Revision: 1
# Processed by: cddbd v1.5.2PL0 Copyright (c) Steve Scherf et al.
# Submitted via: CDex 1.51
#
DISCID=f0104d31
DTITLE=FuzeauVERNY - Jazz Warm up
DYEAR=2006
DGENRE=Jazz
TTITLE0=Amen
TTITLE1=AmenPB
TTITLE2=Little lite of mine
TTITLE3=Little lite of minePB
TTITLE4=Mon ami le boogie
TTITLE5=Mon ami le boogiePB
TTITLE6=J'aime la mousse au chocolat
TTITLE7=J'aime la mousse au chocolatPB
TTITLE8=Everybody
TTITLE9=EverybodyPB
TTITLE10=Jazz week
TTITLE11=Jazz weekPB
TTITLE12=Le lézard
TTITLE13=Le lézardPB
TTITLE14=Le boa
TTITLE15=Le boaPB
TTITLE16=La poule
TTITLE17=La poulePB
TTITLE18=Djingaladjazz
TTITLE19=DjingaladjazzPB
TTITLE20=Djingaladja
TTITLE21=DjingaladjaPB
TTITLE22=Oceans bleus et palmiers
TTITLE23=Oceans bleus et palmiersPB
TTITLE24=Je vais à la plage
TTITLE25=Je vais à la plagePB
TTITLE26=T'as pas tout dit-voix1
TTITLE27=T'as pas tout dit - voix2
TTITLE28=T'as pas tout dit -voix3
TTITLE29=T'as pas tout dit - Tutti 3 voix
TTITLE30=T'as pas tout ditPB
TTITLE31=Calypso II
TTITLE32=Calypso II - 1er tour
TTITLE33=Calypso II - 2e tour
TTITLE34=Calypso II - 3e tour
TTITLE35=Calypso II PB
TTITLE36=Calypso II PB sur 1ton
TTITLE37=Makotoudé
TTITLE38=Makotoudé - 1er tour
TTITLE39=Makotoudé - 2e tour
TTITLE40=Makotoudé - 3e tour
TTITLE41=Makotoudé PB
TTITLE42=Makotoudé PB sur 1ton
TTITLE43=Chocolat
TTITLE44=Chocolat - 1er tour
TTITLE45=Chocolat - 2e tour
TTITLE46=Chocolat - 3e tour
TTITLE47=Chocolat PB
TTITLE48=Chocolat PB sur 1ton
EXTD=YEAR: 2006
EXTT0=
EXTT1=
EXTT2=
EXTT3=
EXTT4=
EXTT5=
EXTT6=
EXTT7=
EXTT8=
EXTT9=
EXTT10=
EXTT11=
EXTT12=
EXTT13=
EXTT14=
EXTT15=
EXTT16=
EXTT17=
EXTT18=
EXTT19=
EXTT20=
EXTT21=
EXTT22=
EXTT23=
EXTT24=
EXTT25=
EXTT26=
EXTT27=
EXTT28=
EXTT29=
EXTT30=
EXTT31=
EXTT32=
EXTT33=
EXTT34=
EXTT35=
EXTT36=
EXTT37=
EXTT38=
EXTT39=
EXTT40=
EXTT41=
EXTT42=
EXTT43=
EXTT44=
EXTT45=
EXTT46=
EXTT47=
EXTT48=
PLAYORDER=
